<?xml version="1.0" standalone="no"?>
<!DOCTYPE svg PUBLIC "-//W3C//DTD SVG 20010904//EN"
 "http://www.w3.org/TR/2001/REC-SVG-20010904/DTD/svg10.dtd">
<svg version="1.0" xmlns="http://www.w3.org/2000/svg"
 width="1000.000000pt" height="340.000000pt" viewBox="0 0 1000.000000 340.000000"
 preserveAspectRatio="xMidYMid meet">

<g transform="translate(0.000000,340.000000) scale(0.100000,-0.100000)"
fill="#000000" stroke="none">
<path d="M3207 3370 c-93 -110 -284 -641 -500 -1390 -68 -233 -102 -365 -136
-510 -139 -611 -113 -1111 70 -1333 16 -20 58 -50 93 -67 109 -54 219 -40 310
41 65 57 169 211 159 236 -2 6 14 46 36 88 23 42 39 81 35 86 -3 5 -1 9 5 9 6
0 20 19 32 42 36 71 77 178 68 178 -10 0 -59 -97 -59 -118 0 -10 -16 -35 -35
-57 -23 -27 -35 -35 -35 -23 0 19 32 78 43 78 4 0 7 7 7 15 0 9 11 38 25 65
15 29 21 51 15 55 -6 3 -10 2 -10 -3 0 -5 -12 -26 -26 -47 -14 -21 -26 -47
-27 -59 -1 -11 -7 -27 -15 -36 -7 -8 -44 -62 -81 -120 -85 -129 -165 -219
-224 -250 -67 -35 -77 -26 -77 70 0 243 108 758 320 1520 182 652 320 1209
320 1282 -1 104 -45 177 -141 233 -64 37 -88 42 -107 23 -9 -9 -15 -8 -25 6
-13 17 -15 16 -40 -14z m-17 -2950 c0 -5 -5 -10 -11 -10 -5 0 -7 5 -4 10 3 6
8 10 11 10 2 0 4 -4 4 -10z m-20 -130 c-6 -12 -14 -19 -17 -17 -2 3 1 15 7 27
6 12 14 19 17 17 2 -3 -1 -15 -7 -27z"/>
<path d="M9685 2475 c-65 -23 -99 -79 -159 -260 -81 -244 -121 -479 -151 -885
-21 -294 -20 -390 9 -470 23 -64 24 -65 60 -64 20 1 36 -2 36 -7 0 -4 7 -14
15 -23 19 -19 57 -7 96 30 l26 25 6 -23 c13 -50 38 8 73 173 73 346 109 494
173 721 53 189 131 581 131 658 0 11 -17 38 -37 61 -33 36 -41 40 -75 37 -30
-3 -38 0 -38 13 0 9 -7 20 -16 23 -27 10 -107 6 -149 -9z m-53 -102 c-11 -21
-27 -63 -37 -93 -10 -30 -22 -59 -27 -65 -15 -15 1 54 23 97 11 21 19 43 19
50 0 16 30 61 37 55 2 -3 -4 -22 -15 -44z m-82 -238 c-6 -15 -13 -25 -17 -22
-3 4 0 21 8 38 16 39 24 24 9 -16z m-29 -92 c-8 -15 -10 -15 -11 -2 0 17 10
32 18 25 2 -3 -1 -13 -7 -23z"/>
<path d="M6862 2117 c-16 -16 -22 -32 -18 -44 4 -12 -12 -58 -42 -124 -107
-228 -300 -742 -408 -1084 -20 -66 -44 -136 -52 -155 l-15 -35 -9 30 c-16 57
-21 300 -9 470 7 94 25 262 42 375 16 113 34 233 39 268 12 85 -7 156 -50 195
-18 16 -38 26 -46 23 -8 -3 -20 -8 -27 -11 -10 -4 -12 2 -9 26 4 29 3 30 -17
20 -16 -9 -21 -9 -21 1 0 18 -100 41 -137 32 -81 -20 -129 -68 -188 -189 -68
-142 -127 -373 -163 -640 -11 -84 -6 -349 9 -460 44 -340 164 -560 332 -610
63 -19 107 -19 174 -1 29 8 62 12 72 9 49 -13 99 89 136 277 45 220 114 446
230 745 96 249 130 327 140 329 6 1 12 -68 16 -179 5 -152 9 -189 28 -237 46
-118 112 -178 204 -186 30 -2 63 1 75 7 20 11 48 71 32 71 -4 0 9 34 31 76 21
41 39 86 39 100 0 13 6 27 14 30 16 6 40 64 26 64 -16 0 -50 -53 -50 -79 0
-29 -34 -80 -46 -68 -17 16 47 154 66 142 6 -3 10 0 10 8 0 12 -20 27 -36 27
-2 0 -11 -14 -19 -31 -9 -17 -19 -28 -23 -24 -8 8 -4 110 8 210 6 44 10 125
10 180 -1 305 -80 445 -263 461 -57 6 -64 4 -85 -19z m-827 -73 c-35 -55 -87
-147 -108 -192 -15 -33 -22 -42 -25 -29 -5 25 50 135 99 197 42 53 63 68 34
24z m706 -615 c-9 -22 -10 -22 -10 -3 -1 11 2 24 6 27 12 12 14 0 4 -24z m-55
-151 c-7 -24 -20 -56 -30 -73 -9 -16 -14 -21 -10 -10 3 11 12 39 20 63 7 23
16 47 19 52 13 21 13 8 1 -32z m-140 -379 c-8 -19 -15 -29 -15 -22 -1 18 19
67 25 61 3 -3 -2 -21 -10 -39z"/>
<path d="M7661 2124 c-12 -9 -37 -38 -54 -64 -18 -26 -48 -67 -68 -91 -53 -63
-102 -157 -154 -294 -25 -66 -45 -121 -45 -123 0 -2 7 -2 15 2 13 5 13 2 -1
-25 -8 -17 -14 -33 -12 -35 2 -2 12 13 23 32 10 20 24 33 31 30 14 -5 30 29
25 53 -1 7 2 10 8 6 7 -3 8 0 5 10 -5 11 -2 14 10 9 9 -3 16 -2 16 3 0 5 14
31 31 58 29 45 32 47 43 29 7 -12 11 -89 11 -229 0 -194 2 -215 24 -275 37
-106 90 -191 165 -266 109 -109 203 -141 293 -100 32 14 41 25 50 57 11 41 1
52 -26 26 -11 -10 -12 -9 -6 3 4 8 14 22 21 30 8 9 10 21 5 29 -7 10 -18 4
-46 -28 -71 -78 -117 -47 -145 97 -18 90 -7 226 35 436 61 307 64 420 10 511
-56 96 -198 155 -264 109z m-247 -508 c-6 -16 -24 -13 -24 5 0 6 5 7 10 4 6
-3 10 -1 10 6 0 7 2 10 5 7 3 -3 3 -13 -1 -22z"/>
<path d="M5027 1989 c-27 -4 -66 -19 -88 -33 -40 -27 -51 -40 -24 -30 9 4 2
-18 -20 -61 -23 -44 -35 -80 -35 -107 0 -37 -6 -46 -85 -123 -118 -115 -139
-162 -141 -312 -2 -102 -4 -115 -27 -145 -13 -18 -62 -85 -107 -148 -182 -253
-306 -375 -463 -455 -100 -51 -130 -55 -152 -22 -101 155 53 759 267 1042 68
90 129 124 191 108 55 -15 70 -8 63 31 -19 101 -225 171 -390 132 -101 -24
-181 -70 -261 -152 -79 -80 -120 -143 -174 -271 -88 -204 -126 -510 -86 -681
53 -226 233 -368 441 -349 146 14 306 117 419 271 11 15 28 35 38 44 9 9 17
22 17 29 0 7 42 68 93 135 51 68 108 147 126 176 18 28 36 52 40 51 3 0 28
-34 54 -75 58 -89 138 -159 239 -208 220 -108 392 -52 501 162 l33 67 80 30
c96 36 115 46 118 67 1 9 8 23 15 32 18 22 11 20 -40 -8 -61 -34 -127 -52
-140 -39 -7 7 -5 42 6 109 43 260 -5 462 -145 605 -98 100 -237 149 -363 128z
m255 -131 c69 -39 128 -147 148 -274 19 -115 -22 -358 -66 -395 -23 -19 -70
10 -164 98 -90 85 -119 131 -103 165 14 30 118 93 150 90 29 -2 37 16 29 62
-13 66 -66 100 -214 137 -41 10 -43 12 -38 37 4 15 22 41 42 59 62 55 141 63
216 21z m-1586 -278 c-24 -47 -60 -130 -81 -185 -55 -147 -58 -153 -62 -133
-10 42 102 311 159 384 34 43 29 22 -16 -66z m233 45 c-38 -53 -46 -57 -23
-12 21 41 34 57 46 57 5 0 -5 -20 -23 -45z m842 -43 c-32 -42 -61 -69 -61 -58
0 7 80 96 87 96 3 0 -9 -17 -26 -38z m-941 -47 c0 -12 -45 -95 -52 -95 -7 0
14 69 27 91 6 9 25 13 25 4z m1050 -15 c0 -5 -5 -10 -11 -10 -5 0 -7 5 -4 10
3 6 8 10 11 10 2 0 4 -4 4 -10z m-850 -27 c0 -5 -10 -24 -22 -43 -12 -19 -30
-51 -39 -70 -12 -23 -18 -29 -19 -16 0 22 59 136 71 136 5 0 9 -3 9 -7z m-259
-90 c-12 -20 -14 -14 -5 12 4 9 9 14 11 11 3 -2 0 -13 -6 -23z m89 -79 c-18
-21 -24 -10 -8 15 7 12 14 17 16 11 2 -6 -2 -17 -8 -26z m1305 -95 c161 -126
151 -115 136 -133 -8 -10 -9 -16 -1 -19 6 -3 5 -4 -2 -3 -7 2 -36 -18 -65 -44
-112 -102 -199 -81 -239 58 -14 46 -15 67 -5 123 12 75 26 119 38 119 5 0 67
-46 138 -101z m-1325 42 c0 -6 -4 -13 -10 -16 -5 -3 -10 1 -10 9 0 9 5 16 10
16 6 0 10 -4 10 -9z m796 -139 c-24 -24 -30 -7 -9 24 15 24 18 25 21 10 2 -10
-3 -25 -12 -34z m-106 -151 c-6 -12 -15 -21 -21 -21 -10 0 -5 13 14 38 15 19
20 7 7 -17z m-88 -111 c-16 -28 -32 -39 -32 -23 0 6 41 53 46 53 2 0 -5 -13
-14 -30z"/>
<path d="M190 1849 c-17 -17 -43 -55 -57 -83 -60 -117 -123 -360 -123 -470 0
-96 47 -222 111 -299 36 -44 123 -97 159 -97 14 0 46 -8 72 -17 40 -14 51 -15
72 -4 47 26 258 223 252 237 -5 14 69 84 90 84 6 0 14 9 17 20 4 14 14 20 35
20 27 0 34 -7 72 -76 74 -134 146 -194 234 -194 65 0 93 14 101 49 4 17 10 31
15 31 18 0 60 105 60 151 0 131 -61 341 -130 448 -40 62 -109 121 -142 121
-27 0 -23 -12 36 -94 109 -152 171 -391 135 -520 -13 -47 -59 -96 -89 -96 -31
0 -65 43 -85 107 -23 74 -57 143 -83 166 -11 10 -38 21 -59 24 -50 7 -92 -14
-205 -101 -46 -35 -108 -79 -137 -96 -47 -29 -54 -31 -68 -18 -13 14 -10 36
32 207 57 235 61 307 22 374 -42 71 -120 127 -199 142 -38 7 -66 -3 -107 -39
l-24 -21 22 38 c28 45 14 48 -29 6z m575 -595 c-43 -34 -57 -29 -16 6 19 16
37 27 40 24 3 -3 -7 -17 -24 -30z"/>
<path d="M1878 1841 c-31 -10 -74 -29 -95 -42 -54 -33 -173 -149 -173 -169 0
-9 -9 -25 -20 -35 -30 -27 -106 -189 -134 -287 -80 -276 -18 -499 166 -599 60
-32 68 -34 163 -34 88 0 107 3 158 27 62 29 190 118 182 126 -4 5 -51 -22
-127 -72 -16 -10 -28 -14 -28 -9 0 6 33 32 73 58 140 93 453 342 443 352 -2 3
-71 -49 -153 -114 -201 -162 -293 -227 -381 -270 -200 -99 -336 -24 -367 203
-11 87 35 318 74 365 l20 24 43 -41 c89 -85 161 -116 307 -135 112 -14 163 -6
207 33 67 59 79 96 79 243 0 120 -2 134 -27 187 -76 163 -248 243 -410 189z
m163 -173 c21 -39 5 -169 -28 -230 -39 -73 -61 -79 -166 -45 -46 15 -91 27
-100 27 -42 0 -23 44 57 128 44 47 97 86 161 121 50 26 61 26 76 -1z m-336
-199 c-9 -17 -19 -29 -22 -26 -5 5 25 57 33 57 3 0 -3 -14 -11 -31z m341 -35
c-4 -9 -9 -15 -11 -12 -3 3 -3 13 1 22 4 9 9 15 11 12 3 -3 3 -13 -1 -22z"/>
<path d="M8698 1847 c-25 -8 -72 -29 -103 -48 -63 -38 -175 -149 -175 -173 0
-8 -8 -21 -18 -28 -22 -16 -92 -159 -122 -248 -29 -85 -50 -198 -50 -265 0
-321 274 -509 544 -373 53 27 166 104 166 114 0 11 -23 0 -79 -36 -34 -22 -64
-40 -67 -40 -15 0 17 27 94 79 111 74 289 214 367 286 83 78 51 58 -90 -55
-190 -153 -324 -248 -404 -288 -171 -85 -298 -40 -347 124 -26 87 -12 264 32
396 24 74 36 78 92 26 26 -24 63 -53 82 -65 55 -33 162 -62 258 -69 76 -6 95
-4 134 13 96 43 144 181 119 343 -22 137 -91 238 -199 287 -66 31 -165 39
-234 20z m152 -176 c29 -55 -2 -219 -51 -272 -33 -36 -57 -36 -146 -5 -37 14
-80 27 -96 30 l-27 6 16 33 c26 49 132 148 204 190 74 42 85 44 100 18z m-337
-206 c-3 -9 -8 -14 -10 -11 -3 3 -2 9 2 15 9 16 15 13 8 -4z m339 -37 c-7 -7
-12 -8 -12 -2 0 14 12 26 19 19 2 -3 -1 -11 -7 -17z"/>
<path d="M7277 1430 c-33 -67 -33 -78 -5 -89 23 -8 46 11 61 51 10 29 -9 29
-24 0 -14 -27 -28 -42 -41 -42 -4 0 4 22 18 49 14 27 24 57 22 68 -4 13 -12 2
-31 -37z"/>
<path d="M8097 993 c-4 -3 -7 -11 -7 -17 0 -6 5 -5 12 2 6 6 9 14 7 17 -3 3
-9 2 -12 -2z"/>
<path d="M3396 881 c-20 -37 -20 -41 0 -41 9 0 14 6 11 13 -2 6 0 20 5 30 5
10 7 21 5 24 -3 3 -13 -9 -21 -26z"/>
<path d="M3435 858 l-16 -33 20 25 c20 24 26 40 16 40 -2 0 -12 -15 -20 -32z"/>
<path d="M3356 815 c-3 -8 -1 -15 4 -15 13 0 22 18 11 24 -5 3 -11 -1 -15 -9z"/>
<path d="M3397 793 c-4 -3 -7 -13 -7 -22 1 -13 3 -13 11 2 11 19 8 33 -4 20z"/>
<path d="M9362 365 c-12 -14 -26 -50 -33 -79 -15 -70 -8 -232 12 -250 19 -17
109 -36 175 -36 l54 0 26 57 c34 78 64 171 64 200 0 13 -7 37 -15 53 -25 49
-108 80 -121 45 -9 -23 -21 -18 -20 8 1 20 -4 22 -60 25 -56 3 -64 1 -82 -23z"/>
<path d="M9306 331 c-12 -19 -19 -108 -9 -114 6 -4 13 19 16 56 6 63 4 76 -7
58z"/>
</g>
</svg>
